<?xml version="1.0" encoding="UTF-8" standalone="no"?>
<!DOCTYPE svg PUBLIC "-//W3C//DTD SVG 1.1//EN" "http://www.w3.org/Graphics/SVG/1.1/DTD/svg11.dtd">
<svg width="100%" height="100%" viewBox="0 0 1244 382" version="1.1" xmlns="http://www.w3.org/2000/svg" xmlns:xlink="http://www.w3.org/1999/xlink" xml:space="preserve" xmlns:serif="http://www.serif.com/" style="fill-rule:evenodd;clip-rule:evenodd;stroke-linejoin:round;stroke-miterlimit:2;">
    <g transform="matrix(1,0,0,1,-25.0713,-320.725)">
        <g>
            <g transform="matrix(0.946918,0,0,0.946918,37.8029,331.977)">
                <g transform="matrix(90.7796,0,0,90.7796,515.172,329.907)">
                    <path d="M0.202,-0.239L0.164,-0.134C0.161,-0.126 0.159,-0.118 0.157,-0.111C0.156,-0.103 0.155,-0.096 0.155,-0.091C0.155,-0.074 0.16,-0.062 0.171,-0.054C0.182,-0.046 0.199,-0.042 0.221,-0.042L0.244,-0.042L0.244,-0L0,-0L0,-0.042L0.019,-0.042C0.029,-0.042 0.037,-0.043 0.044,-0.045C0.051,-0.047 0.057,-0.051 0.063,-0.057C0.068,-0.063 0.073,-0.071 0.078,-0.081C0.083,-0.091 0.089,-0.104 0.095,-0.12L0.317,-0.714L0.395,-0.714L0.621,-0.095C0.625,-0.085 0.629,-0.076 0.633,-0.069C0.637,-0.063 0.642,-0.057 0.647,-0.053C0.653,-0.049 0.659,-0.046 0.667,-0.044C0.674,-0.043 0.682,-0.042 0.692,-0.042L0.705,-0.042L0.705,-0L0.43,-0L0.43,-0.042L0.453,-0.042C0.493,-0.042 0.513,-0.058 0.513,-0.09C0.513,-0.095 0.512,-0.101 0.511,-0.107C0.51,-0.113 0.507,-0.119 0.505,-0.127L0.465,-0.239L0.202,-0.239ZM0.385,-0.464C0.374,-0.493 0.365,-0.521 0.356,-0.547C0.348,-0.573 0.34,-0.598 0.335,-0.622C0.333,-0.61 0.33,-0.598 0.327,-0.587C0.324,-0.576 0.32,-0.564 0.317,-0.553C0.313,-0.541 0.309,-0.529 0.305,-0.516C0.3,-0.503 0.295,-0.489 0.289,-0.473L0.221,-0.289L0.447,-0.289L0.385,-0.464Z" style="fill:white;fill-rule:nonzero;"/>
                </g>
                <g transform="matrix(90.7796,0,0,90.7796,579.178,329.907)">
                    <path d="M0.322,-0L0.033,-0L0.033,-0.042L0.036,-0.042C0.048,-0.042 0.058,-0.043 0.068,-0.044C0.078,-0.046 0.087,-0.049 0.094,-0.054C0.101,-0.059 0.107,-0.067 0.112,-0.076C0.116,-0.086 0.118,-0.098 0.118,-0.114L0.118,-0.426C0.118,-0.44 0.116,-0.452 0.112,-0.461C0.107,-0.47 0.101,-0.477 0.094,-0.482C0.086,-0.487 0.078,-0.49 0.068,-0.492C0.058,-0.493 0.047,-0.494 0.036,-0.494L0.033,-0.494L0.033,-0.536L0.187,-0.536L0.206,-0.437L0.211,-0.437C0.217,-0.452 0.224,-0.466 0.231,-0.479C0.238,-0.492 0.246,-0.504 0.256,-0.514C0.266,-0.524 0.278,-0.532 0.293,-0.537C0.308,-0.543 0.326,-0.546 0.348,-0.546C0.385,-0.546 0.412,-0.54 0.429,-0.527C0.447,-0.514 0.456,-0.496 0.456,-0.473C0.456,-0.463 0.454,-0.453 0.451,-0.444C0.448,-0.436 0.442,-0.428 0.435,-0.422C0.427,-0.415 0.417,-0.41 0.406,-0.407C0.394,-0.404 0.38,-0.402 0.363,-0.402C0.363,-0.43 0.359,-0.449 0.351,-0.462C0.343,-0.474 0.33,-0.48 0.31,-0.48C0.298,-0.48 0.287,-0.476 0.277,-0.469C0.267,-0.462 0.259,-0.453 0.251,-0.442C0.244,-0.43 0.238,-0.417 0.233,-0.402C0.228,-0.387 0.224,-0.372 0.22,-0.356C0.217,-0.34 0.215,-0.324 0.214,-0.309C0.213,-0.293 0.212,-0.279 0.212,-0.266L0.212,-0.109C0.212,-0.094 0.214,-0.082 0.219,-0.073C0.223,-0.065 0.229,-0.058 0.236,-0.053C0.244,-0.049 0.253,-0.046 0.262,-0.044C0.272,-0.043 0.283,-0.042 0.294,-0.042L0.322,-0.042L0.322,-0Z" style="fill:white;fill-rule:nonzero;"/>
                </g>
                <g transform="matrix(90.7796,0,0,90.7796,621.953,329.907)">
                    <path d="M0.283,0.01C0.25,0.01 0.219,0.005 0.191,-0.006C0.163,-0.016 0.139,-0.032 0.119,-0.054C0.099,-0.076 0.083,-0.105 0.072,-0.139C0.061,-0.174 0.055,-0.216 0.055,-0.265C0.055,-0.319 0.061,-0.363 0.072,-0.399C0.083,-0.435 0.099,-0.464 0.119,-0.486C0.139,-0.508 0.163,-0.523 0.19,-0.532C0.217,-0.541 0.246,-0.546 0.278,-0.546C0.299,-0.546 0.319,-0.544 0.34,-0.54C0.361,-0.536 0.379,-0.529 0.396,-0.521C0.413,-0.513 0.426,-0.502 0.437,-0.489C0.447,-0.476 0.452,-0.461 0.452,-0.444C0.452,-0.421 0.445,-0.404 0.43,-0.395C0.415,-0.386 0.392,-0.381 0.363,-0.381C0.363,-0.396 0.361,-0.411 0.359,-0.425C0.356,-0.439 0.352,-0.452 0.345,-0.462C0.339,-0.473 0.33,-0.481 0.32,-0.487C0.309,-0.493 0.295,-0.496 0.278,-0.496C0.259,-0.496 0.241,-0.493 0.226,-0.485C0.21,-0.478 0.197,-0.466 0.186,-0.448C0.175,-0.431 0.167,-0.407 0.161,-0.377C0.155,-0.348 0.152,-0.311 0.152,-0.266C0.152,-0.195 0.164,-0.142 0.187,-0.107C0.211,-0.073 0.25,-0.055 0.303,-0.055C0.334,-0.055 0.361,-0.062 0.384,-0.075C0.407,-0.088 0.425,-0.104 0.436,-0.125C0.441,-0.121 0.445,-0.116 0.448,-0.109C0.451,-0.103 0.453,-0.095 0.453,-0.086C0.453,-0.075 0.45,-0.063 0.442,-0.052C0.435,-0.04 0.425,-0.03 0.41,-0.021C0.396,-0.012 0.379,-0.004 0.357,0.001C0.336,0.007 0.312,0.01 0.283,0.01Z" style="fill:white;fill-rule:nonzero;"/>
                </g>
                <g transform="matrix(90.7796,0,0,90.7796,666.634,329.907)">
                    <path d="M0.265,-0.043C0.277,-0.043 0.288,-0.044 0.298,-0.045C0.308,-0.046 0.319,-0.048 0.329,-0.05L0.329,-0.006C0.325,-0.004 0.319,-0.002 0.313,-0C0.306,0.002 0.298,0.004 0.29,0.005C0.282,0.007 0.274,0.008 0.265,0.009C0.256,0.009 0.248,0.01 0.24,0.01C0.215,0.01 0.193,0.007 0.175,0.002C0.157,-0.004 0.142,-0.012 0.13,-0.024C0.118,-0.036 0.109,-0.052 0.104,-0.072C0.098,-0.092 0.095,-0.116 0.095,-0.145L0.095,-0.479L0.019,-0.479L0.019,-0.519C0.031,-0.519 0.044,-0.521 0.059,-0.526C0.073,-0.531 0.086,-0.539 0.097,-0.551C0.109,-0.563 0.118,-0.578 0.125,-0.595C0.132,-0.612 0.138,-0.633 0.143,-0.659L0.189,-0.659L0.189,-0.536L0.32,-0.536L0.32,-0.479L0.189,-0.479L0.189,-0.142C0.189,-0.108 0.196,-0.083 0.21,-0.067C0.224,-0.051 0.242,-0.043 0.265,-0.043Z" style="fill:white;fill-rule:nonzero;"/>
                </g>
                <g transform="matrix(90.7796,0,0,90.7796,698.593,329.907)">
                    <path d="M0.036,-0.042C0.047,-0.042 0.058,-0.043 0.068,-0.044C0.078,-0.046 0.086,-0.049 0.094,-0.053C0.101,-0.058 0.107,-0.065 0.112,-0.073C0.116,-0.082 0.118,-0.094 0.118,-0.109L0.118,-0.426C0.118,-0.44 0.116,-0.452 0.112,-0.461C0.107,-0.47 0.101,-0.477 0.094,-0.482C0.086,-0.487 0.078,-0.49 0.068,-0.492C0.058,-0.493 0.047,-0.494 0.036,-0.494L0.033,-0.494L0.033,-0.536L0.212,-0.536L0.212,-0.114C0.212,-0.098 0.214,-0.086 0.219,-0.076C0.223,-0.067 0.229,-0.059 0.236,-0.054C0.243,-0.049 0.252,-0.046 0.262,-0.044C0.272,-0.043 0.283,-0.042 0.294,-0.042L0.307,-0.042L0.307,-0L0.023,-0L0.023,-0.042L0.036,-0.042ZM0.104,-0.698C0.104,-0.71 0.105,-0.72 0.108,-0.728C0.111,-0.735 0.115,-0.742 0.121,-0.747C0.126,-0.751 0.132,-0.755 0.139,-0.757C0.146,-0.759 0.153,-0.76 0.161,-0.76C0.169,-0.76 0.176,-0.759 0.183,-0.757C0.19,-0.755 0.196,-0.751 0.201,-0.747C0.206,-0.742 0.21,-0.735 0.213,-0.728C0.216,-0.72 0.218,-0.71 0.218,-0.698C0.218,-0.687 0.216,-0.677 0.213,-0.669C0.21,-0.661 0.206,-0.655 0.201,-0.65C0.196,-0.645 0.19,-0.642 0.183,-0.639C0.176,-0.637 0.169,-0.636 0.161,-0.636C0.153,-0.636 0.146,-0.637 0.139,-0.639C0.132,-0.642 0.126,-0.645 0.121,-0.65C0.115,-0.655 0.111,-0.661 0.108,-0.669C0.105,-0.677 0.104,-0.687 0.104,-0.698Z" style="fill:white;fill-rule:nonzero;"/>
                </g>
                <g transform="matrix(90.7796,0,0,90.7796,727.626,329.907)">
                    <path d="M0.21,0.01C0.185,0.01 0.162,0.008 0.142,0.003C0.122,-0.001 0.104,-0.008 0.09,-0.017C0.076,-0.026 0.064,-0.037 0.057,-0.05C0.049,-0.063 0.045,-0.079 0.045,-0.096C0.045,-0.11 0.047,-0.121 0.052,-0.13C0.056,-0.139 0.061,-0.146 0.068,-0.151C0.074,-0.156 0.081,-0.16 0.088,-0.162C0.095,-0.164 0.102,-0.165 0.108,-0.165C0.108,-0.147 0.11,-0.131 0.113,-0.116C0.117,-0.1 0.123,-0.087 0.131,-0.075C0.14,-0.064 0.151,-0.055 0.165,-0.048C0.179,-0.041 0.196,-0.038 0.216,-0.038C0.234,-0.038 0.25,-0.04 0.263,-0.045C0.277,-0.049 0.288,-0.055 0.298,-0.063C0.307,-0.071 0.314,-0.081 0.319,-0.092C0.324,-0.103 0.326,-0.116 0.326,-0.129C0.326,-0.141 0.324,-0.152 0.321,-0.161C0.317,-0.17 0.31,-0.178 0.301,-0.186C0.292,-0.194 0.279,-0.202 0.263,-0.21C0.247,-0.218 0.227,-0.227 0.203,-0.238C0.177,-0.249 0.155,-0.26 0.136,-0.271C0.117,-0.281 0.101,-0.293 0.089,-0.305C0.076,-0.318 0.067,-0.332 0.061,-0.347C0.055,-0.363 0.052,-0.382 0.052,-0.404C0.052,-0.427 0.056,-0.447 0.065,-0.464C0.074,-0.482 0.087,-0.497 0.104,-0.509C0.12,-0.52 0.14,-0.529 0.163,-0.536C0.186,-0.542 0.212,-0.545 0.24,-0.545C0.264,-0.545 0.285,-0.542 0.303,-0.538C0.321,-0.533 0.337,-0.526 0.349,-0.518C0.361,-0.51 0.371,-0.5 0.377,-0.489C0.383,-0.477 0.386,-0.465 0.386,-0.453C0.386,-0.435 0.38,-0.42 0.367,-0.409C0.355,-0.399 0.337,-0.393 0.314,-0.393C0.314,-0.427 0.307,-0.453 0.293,-0.471C0.279,-0.49 0.258,-0.499 0.228,-0.499C0.211,-0.499 0.197,-0.497 0.185,-0.493C0.173,-0.489 0.163,-0.484 0.155,-0.477C0.147,-0.469 0.142,-0.461 0.138,-0.451C0.135,-0.441 0.133,-0.431 0.133,-0.419C0.133,-0.406 0.135,-0.395 0.14,-0.386C0.144,-0.377 0.151,-0.368 0.161,-0.36C0.171,-0.353 0.184,-0.345 0.2,-0.338C0.216,-0.33 0.235,-0.322 0.257,-0.313C0.283,-0.302 0.306,-0.291 0.325,-0.28C0.344,-0.27 0.359,-0.258 0.371,-0.245C0.384,-0.232 0.393,-0.218 0.398,-0.202C0.404,-0.186 0.407,-0.168 0.407,-0.147C0.407,-0.121 0.403,-0.098 0.393,-0.079C0.384,-0.059 0.37,-0.043 0.353,-0.03C0.336,-0.016 0.315,-0.007 0.291,-0C0.267,0.007 0.24,0.01 0.21,0.01Z" style="fill:white;fill-rule:nonzero;"/>
                </g>
                <g transform="matrix(90.7796,0,0,90.7796,768.583,329.907)">
                    <path d="M0.283,0.01C0.25,0.01 0.219,0.005 0.191,-0.006C0.163,-0.016 0.139,-0.032 0.119,-0.054C0.099,-0.076 0.083,-0.105 0.072,-0.139C0.061,-0.174 0.055,-0.216 0.055,-0.265C0.055,-0.319 0.061,-0.363 0.072,-0.399C0.083,-0.435 0.099,-0.464 0.119,-0.486C0.139,-0.508 0.163,-0.523 0.19,-0.532C0.217,-0.541 0.246,-0.546 0.278,-0.546C0.299,-0.546 0.319,-0.544 0.34,-0.54C0.361,-0.536 0.379,-0.529 0.396,-0.521C0.413,-0.513 0.426,-0.502 0.437,-0.489C0.447,-0.476 0.452,-0.461 0.452,-0.444C0.452,-0.421 0.445,-0.404 0.43,-0.395C0.415,-0.386 0.392,-0.381 0.363,-0.381C0.363,-0.396 0.361,-0.411 0.359,-0.425C0.356,-0.439 0.352,-0.452 0.345,-0.462C0.339,-0.473 0.33,-0.481 0.32,-0.487C0.309,-0.493 0.295,-0.496 0.278,-0.496C0.259,-0.496 0.241,-0.493 0.226,-0.485C0.21,-0.478 0.197,-0.466 0.186,-0.448C0.175,-0.431 0.167,-0.407 0.161,-0.377C0.155,-0.348 0.152,-0.311 0.152,-0.266C0.152,-0.195 0.164,-0.142 0.187,-0.107C0.211,-0.073 0.25,-0.055 0.303,-0.055C0.334,-0.055 0.361,-0.062 0.384,-0.075C0.407,-0.088 0.425,-0.104 0.436,-0.125C0.441,-0.121 0.445,-0.116 0.448,-0.109C0.451,-0.103 0.453,-0.095 0.453,-0.086C0.453,-0.075 0.45,-0.063 0.442,-0.052C0.435,-0.04 0.425,-0.03 0.41,-0.021C0.396,-0.012 0.379,-0.004 0.357,0.001C0.336,0.007 0.312,0.01 0.283,0.01Z" style="fill:white;fill-rule:nonzero;"/>
                </g>
                <g transform="matrix(90.7796,0,0,90.7796,813.264,329.907)">
                    <path d="M0.287,-0.042L0.287,-0L0.018,-0L0.018,-0.042L0.026,-0.042C0.037,-0.042 0.048,-0.043 0.058,-0.044C0.068,-0.046 0.076,-0.049 0.084,-0.054C0.091,-0.059 0.097,-0.067 0.101,-0.076C0.106,-0.086 0.108,-0.098 0.108,-0.114L0.108,-0.65C0.108,-0.665 0.106,-0.676 0.101,-0.685C0.097,-0.694 0.091,-0.701 0.083,-0.706C0.076,-0.711 0.067,-0.714 0.057,-0.716C0.047,-0.717 0.037,-0.718 0.026,-0.718L0.018,-0.718L0.018,-0.76L0.202,-0.76L0.202,-0.54C0.202,-0.531 0.202,-0.521 0.202,-0.511C0.201,-0.502 0.201,-0.492 0.2,-0.484C0.2,-0.474 0.199,-0.465 0.198,-0.455L0.203,-0.455C0.233,-0.516 0.282,-0.546 0.35,-0.546C0.378,-0.546 0.404,-0.542 0.426,-0.534C0.448,-0.527 0.466,-0.515 0.481,-0.499C0.496,-0.483 0.507,-0.463 0.515,-0.438C0.523,-0.414 0.527,-0.384 0.527,-0.35L0.527,-0.114C0.527,-0.098 0.529,-0.086 0.533,-0.076C0.537,-0.067 0.542,-0.059 0.549,-0.054C0.556,-0.049 0.564,-0.046 0.573,-0.044C0.583,-0.043 0.593,-0.042 0.604,-0.042L0.607,-0.042L0.607,-0L0.433,-0L0.433,-0.345C0.433,-0.367 0.431,-0.386 0.427,-0.403C0.423,-0.42 0.417,-0.435 0.408,-0.446C0.4,-0.458 0.389,-0.467 0.375,-0.473C0.361,-0.479 0.343,-0.482 0.323,-0.482C0.302,-0.482 0.284,-0.478 0.269,-0.47C0.254,-0.463 0.242,-0.452 0.232,-0.438C0.222,-0.424 0.214,-0.406 0.209,-0.386C0.205,-0.366 0.202,-0.344 0.202,-0.32L0.202,-0.109C0.202,-0.094 0.204,-0.082 0.209,-0.073C0.213,-0.065 0.219,-0.058 0.227,-0.053C0.234,-0.049 0.243,-0.046 0.253,-0.044C0.263,-0.043 0.273,-0.042 0.284,-0.042L0.287,-0.042Z" style="fill:white;fill-rule:nonzero;"/>
                </g>
                <g transform="matrix(90.7796,0,0,90.7796,870.888,329.907)">
                    <path d="M0.036,-0.042C0.047,-0.042 0.058,-0.043 0.068,-0.044C0.078,-0.046 0.086,-0.049 0.094,-0.053C0.101,-0.058 0.107,-0.065 0.112,-0.073C0.116,-0.082 0.118,-0.094 0.118,-0.109L0.118,-0.426C0.118,-0.44 0.116,-0.452 0.112,-0.461C0.107,-0.47 0.101,-0.477 0.094,-0.482C0.086,-0.487 0.078,-0.49 0.068,-0.492C0.058,-0.493 0.047,-0.494 0.036,-0.494L0.033,-0.494L0.033,-0.536L0.212,-0.536L0.212,-0.114C0.212,-0.098 0.214,-0.086 0.219,-0.076C0.223,-0.067 0.229,-0.059 0.236,-0.054C0.243,-0.049 0.252,-0.046 0.262,-0.044C0.272,-0.043 0.283,-0.042 0.294,-0.042L0.307,-0.042L0.307,-0L0.023,-0L0.023,-0.042L0.036,-0.042ZM0.104,-0.698C0.104,-0.71 0.105,-0.72 0.108,-0.728C0.111,-0.735 0.115,-0.742 0.121,-0.747C0.126,-0.751 0.132,-0.755 0.139,-0.757C0.146,-0.759 0.153,-0.76 0.161,-0.76C0.169,-0.76 0.176,-0.759 0.183,-0.757C0.19,-0.755 0.196,-0.751 0.201,-0.747C0.206,-0.742 0.21,-0.735 0.213,-0.728C0.216,-0.72 0.218,-0.71 0.218,-0.698C0.218,-0.687 0.216,-0.677 0.213,-0.669C0.21,-0.661 0.206,-0.655 0.201,-0.65C0.196,-0.645 0.19,-0.642 0.183,-0.639C0.176,-0.637 0.169,-0.636 0.161,-0.636C0.153,-0.636 0.146,-0.637 0.139,-0.639C0.132,-0.642 0.126,-0.645 0.121,-0.65C0.115,-0.655 0.111,-0.661 0.108,-0.669C0.105,-0.677 0.104,-0.687 0.104,-0.698Z" style="fill:white;fill-rule:nonzero;"/>
                </g>
                <g transform="matrix(90.7796,0,0,90.7796,899.921,329.907)">
                    <path d="M0.21,0.01C0.185,0.01 0.162,0.008 0.142,0.003C0.122,-0.001 0.104,-0.008 0.09,-0.017C0.076,-0.026 0.064,-0.037 0.057,-0.05C0.049,-0.063 0.045,-0.079 0.045,-0.096C0.045,-0.11 0.047,-0.121 0.052,-0.13C0.056,-0.139 0.061,-0.146 0.068,-0.151C0.074,-0.156 0.081,-0.16 0.088,-0.162C0.095,-0.164 0.102,-0.165 0.108,-0.165C0.108,-0.147 0.11,-0.131 0.113,-0.116C0.117,-0.1 0.123,-0.087 0.131,-0.075C0.14,-0.064 0.151,-0.055 0.165,-0.048C0.179,-0.041 0.196,-0.038 0.216,-0.038C0.234,-0.038 0.25,-0.04 0.263,-0.045C0.277,-0.049 0.288,-0.055 0.298,-0.063C0.307,-0.071 0.314,-0.081 0.319,-0.092C0.324,-0.103 0.326,-0.116 0.326,-0.129C0.326,-0.141 0.324,-0.152 0.321,-0.161C0.317,-0.17 0.31,-0.178 0.301,-0.186C0.292,-0.194 0.279,-0.202 0.263,-0.21C0.247,-0.218 0.227,-0.227 0.203,-0.238C0.177,-0.249 0.155,-0.26 0.136,-0.271C0.117,-0.281 0.101,-0.293 0.089,-0.305C0.076,-0.318 0.067,-0.332 0.061,-0.347C0.055,-0.363 0.052,-0.382 0.052,-0.404C0.052,-0.427 0.056,-0.447 0.065,-0.464C0.074,-0.482 0.087,-0.497 0.104,-0.509C0.12,-0.52 0.14,-0.529 0.163,-0.536C0.186,-0.542 0.212,-0.545 0.24,-0.545C0.264,-0.545 0.285,-0.542 0.303,-0.538C0.321,-0.533 0.337,-0.526 0.349,-0.518C0.361,-0.51 0.371,-0.5 0.377,-0.489C0.383,-0.477 0.386,-0.465 0.386,-0.453C0.386,-0.435 0.38,-0.42 0.367,-0.409C0.355,-0.399 0.337,-0.393 0.314,-0.393C0.314,-0.427 0.307,-0.453 0.293,-0.471C0.279,-0.49 0.258,-0.499 0.228,-0.499C0.211,-0.499 0.197,-0.497 0.185,-0.493C0.173,-0.489 0.163,-0.484 0.155,-0.477C0.147,-0.469 0.142,-0.461 0.138,-0.451C0.135,-0.441 0.133,-0.431 0.133,-0.419C0.133,-0.406 0.135,-0.395 0.14,-0.386C0.144,-0.377 0.151,-0.368 0.161,-0.36C0.171,-0.353 0.184,-0.345 0.2,-0.338C0.216,-0.33 0.235,-0.322 0.257,-0.313C0.283,-0.302 0.306,-0.291 0.325,-0.28C0.344,-0.27 0.359,-0.258 0.371,-0.245C0.384,-0.232 0.393,-0.218 0.398,-0.202C0.404,-0.186 0.407,-0.168 0.407,-0.147C0.407,-0.121 0.403,-0.098 0.393,-0.079C0.384,-0.059 0.37,-0.043 0.353,-0.03C0.336,-0.016 0.315,-0.007 0.291,-0C0.267,0.007 0.24,0.01 0.21,0.01Z" style="fill:white;fill-rule:nonzero;"/>
                </g>
                <g transform="matrix(90.7796,0,0,90.7796,940.879,329.907)">
                    <path d="M0.339,-0.322L0.472,-0.124C0.489,-0.097 0.507,-0.077 0.524,-0.063C0.541,-0.049 0.561,-0.042 0.583,-0.042L0.586,-0.042L0.586,-0L0.572,-0C0.543,-0 0.519,-0.001 0.5,-0.003C0.482,-0.004 0.465,-0.009 0.452,-0.015C0.438,-0.022 0.425,-0.032 0.414,-0.045C0.403,-0.058 0.39,-0.075 0.376,-0.097L0.276,-0.254L0.202,-0.199L0.202,-0.109C0.202,-0.094 0.204,-0.082 0.209,-0.073C0.213,-0.065 0.219,-0.058 0.227,-0.053C0.234,-0.049 0.243,-0.046 0.253,-0.044C0.263,-0.043 0.273,-0.042 0.284,-0.042L0.287,-0.042L0.287,-0L0.018,-0L0.018,-0.042L0.026,-0.042C0.037,-0.042 0.048,-0.043 0.058,-0.044C0.068,-0.046 0.076,-0.049 0.084,-0.054C0.091,-0.059 0.097,-0.067 0.101,-0.076C0.106,-0.086 0.108,-0.098 0.108,-0.114L0.108,-0.65C0.108,-0.665 0.106,-0.676 0.101,-0.685C0.097,-0.694 0.091,-0.701 0.083,-0.706C0.076,-0.711 0.067,-0.714 0.057,-0.716C0.047,-0.717 0.037,-0.718 0.026,-0.718L0.018,-0.718L0.018,-0.76L0.202,-0.76L0.202,-0.374C0.202,-0.365 0.202,-0.353 0.202,-0.339C0.201,-0.325 0.201,-0.311 0.2,-0.297C0.2,-0.282 0.199,-0.265 0.198,-0.248L0.323,-0.385C0.334,-0.397 0.343,-0.407 0.35,-0.417C0.357,-0.426 0.362,-0.434 0.367,-0.44C0.371,-0.447 0.374,-0.453 0.375,-0.459C0.377,-0.464 0.378,-0.469 0.378,-0.474C0.378,-0.483 0.374,-0.488 0.366,-0.49C0.358,-0.493 0.346,-0.494 0.329,-0.494L0.329,-0.536L0.55,-0.536L0.55,-0.494C0.527,-0.494 0.504,-0.486 0.482,-0.47C0.459,-0.453 0.435,-0.431 0.409,-0.401L0.339,-0.322Z" style="fill:white;fill-rule:nonzero;"/>
                </g>
                <g transform="matrix(90.7796,0,0,90.7796,993.981,329.907)">
                    <path d="M0.147,-0.145C0.147,-0.114 0.154,-0.09 0.167,-0.075C0.18,-0.059 0.2,-0.052 0.228,-0.052C0.248,-0.052 0.267,-0.055 0.283,-0.062C0.299,-0.068 0.313,-0.077 0.325,-0.089C0.337,-0.101 0.345,-0.116 0.352,-0.133C0.358,-0.151 0.361,-0.17 0.361,-0.191L0.361,-0.272L0.297,-0.269C0.269,-0.268 0.245,-0.264 0.226,-0.259C0.207,-0.253 0.191,-0.245 0.18,-0.235C0.168,-0.224 0.16,-0.212 0.155,-0.197C0.149,-0.182 0.147,-0.165 0.147,-0.145ZM0.268,-0.496C0.249,-0.496 0.233,-0.493 0.221,-0.488C0.21,-0.483 0.2,-0.475 0.194,-0.465C0.187,-0.456 0.182,-0.444 0.18,-0.431C0.178,-0.417 0.177,-0.403 0.177,-0.387C0.149,-0.387 0.128,-0.392 0.114,-0.401C0.099,-0.411 0.092,-0.427 0.092,-0.45C0.092,-0.467 0.097,-0.482 0.106,-0.494C0.115,-0.506 0.128,-0.516 0.145,-0.524C0.161,-0.531 0.18,-0.537 0.202,-0.541C0.224,-0.544 0.247,-0.546 0.272,-0.546C0.303,-0.546 0.329,-0.543 0.352,-0.537C0.375,-0.531 0.394,-0.521 0.409,-0.507C0.424,-0.494 0.436,-0.476 0.444,-0.454C0.451,-0.432 0.455,-0.405 0.455,-0.373L0.455,-0.114C0.455,-0.1 0.456,-0.088 0.458,-0.079C0.461,-0.07 0.464,-0.063 0.469,-0.057C0.474,-0.052 0.481,-0.048 0.489,-0.045C0.497,-0.043 0.506,-0.042 0.517,-0.042L0.52,-0.042L0.52,-0L0.385,-0L0.369,-0.086L0.361,-0.086C0.35,-0.072 0.34,-0.059 0.331,-0.047C0.321,-0.036 0.31,-0.026 0.298,-0.017C0.287,-0.009 0.273,-0.002 0.259,0.003C0.244,0.007 0.226,0.01 0.205,0.01C0.183,0.01 0.162,0.007 0.143,0C0.124,-0.006 0.108,-0.016 0.094,-0.029C0.08,-0.042 0.069,-0.059 0.062,-0.079C0.054,-0.099 0.05,-0.123 0.05,-0.15C0.05,-0.203 0.069,-0.242 0.106,-0.268C0.144,-0.294 0.201,-0.308 0.278,-0.31L0.361,-0.313L0.361,-0.373C0.361,-0.391 0.36,-0.407 0.358,-0.423C0.356,-0.438 0.352,-0.451 0.345,-0.462C0.339,-0.473 0.329,-0.481 0.317,-0.487C0.305,-0.493 0.289,-0.496 0.268,-0.496Z" style="fill:white;fill-rule:nonzero;"/>
                </g>
                <g transform="matrix(90.7796,0,0,90.7796,1068.67,329.907)">
                    <path d="M0.554,-0.122C0.571,-0.095 0.588,-0.075 0.604,-0.062C0.619,-0.049 0.638,-0.042 0.659,-0.042L0.662,-0.042L0.662,-0L0.648,-0C0.617,-0 0.591,-0.001 0.571,-0.003C0.551,-0.006 0.534,-0.01 0.52,-0.017C0.506,-0.023 0.494,-0.032 0.484,-0.044C0.474,-0.056 0.464,-0.071 0.452,-0.09L0.317,-0.315L0.234,-0.315L0.234,-0.109C0.234,-0.094 0.236,-0.082 0.24,-0.073C0.245,-0.065 0.251,-0.058 0.258,-0.053C0.266,-0.049 0.274,-0.046 0.284,-0.044C0.294,-0.043 0.305,-0.042 0.316,-0.042L0.329,-0.042L0.329,-0L0.038,-0L0.038,-0.042L0.051,-0.042C0.062,-0.042 0.072,-0.043 0.082,-0.044C0.092,-0.046 0.101,-0.049 0.108,-0.053C0.116,-0.058 0.122,-0.065 0.126,-0.073C0.131,-0.082 0.133,-0.094 0.133,-0.109L0.133,-0.604C0.133,-0.619 0.131,-0.63 0.126,-0.639C0.122,-0.648 0.116,-0.655 0.108,-0.66C0.101,-0.665 0.092,-0.668 0.082,-0.67C0.072,-0.671 0.062,-0.672 0.051,-0.672L0.038,-0.672L0.038,-0.714L0.307,-0.714C0.394,-0.714 0.458,-0.698 0.5,-0.666C0.543,-0.634 0.564,-0.585 0.564,-0.521C0.564,-0.494 0.56,-0.471 0.551,-0.451C0.542,-0.431 0.531,-0.414 0.517,-0.399C0.503,-0.384 0.487,-0.372 0.47,-0.362C0.452,-0.353 0.435,-0.345 0.417,-0.339L0.554,-0.122ZM0.234,-0.362L0.304,-0.362C0.333,-0.362 0.358,-0.365 0.377,-0.372C0.397,-0.378 0.413,-0.388 0.424,-0.401C0.436,-0.414 0.444,-0.43 0.449,-0.45C0.455,-0.469 0.457,-0.492 0.457,-0.518C0.457,-0.545 0.454,-0.567 0.449,-0.586C0.443,-0.605 0.434,-0.62 0.422,-0.632C0.41,-0.644 0.393,-0.653 0.374,-0.658C0.354,-0.663 0.33,-0.666 0.302,-0.666L0.234,-0.666L0.234,-0.362Z" style="fill:white;fill-rule:nonzero;"/>
                </g>
                <g transform="matrix(90.7796,0,0,90.7796,1128.2,329.907)">
                    <path d="M0.036,-0.042C0.047,-0.042 0.058,-0.043 0.068,-0.044C0.078,-0.046 0.086,-0.049 0.094,-0.053C0.101,-0.058 0.107,-0.065 0.112,-0.073C0.116,-0.082 0.118,-0.094 0.118,-0.109L0.118,-0.426C0.118,-0.44 0.116,-0.452 0.112,-0.461C0.107,-0.47 0.101,-0.477 0.094,-0.482C0.086,-0.487 0.078,-0.49 0.068,-0.492C0.058,-0.493 0.047,-0.494 0.036,-0.494L0.033,-0.494L0.033,-0.536L0.212,-0.536L0.212,-0.114C0.212,-0.098 0.214,-0.086 0.219,-0.076C0.223,-0.067 0.229,-0.059 0.236,-0.054C0.243,-0.049 0.252,-0.046 0.262,-0.044C0.272,-0.043 0.283,-0.042 0.294,-0.042L0.307,-0.042L0.307,-0L0.023,-0L0.023,-0.042L0.036,-0.042ZM0.117,-0.619C0.125,-0.629 0.132,-0.639 0.14,-0.652C0.148,-0.664 0.156,-0.677 0.164,-0.69C0.171,-0.703 0.179,-0.717 0.186,-0.73C0.193,-0.743 0.199,-0.755 0.204,-0.766L0.311,-0.766L0.311,-0.756C0.305,-0.747 0.296,-0.736 0.284,-0.723C0.272,-0.71 0.258,-0.696 0.244,-0.682C0.229,-0.667 0.214,-0.653 0.198,-0.64C0.183,-0.626 0.169,-0.615 0.155,-0.606L0.117,-0.606L0.117,-0.619Z" style="fill:white;fill-rule:nonzero;"/>
                </g>
                <g transform="matrix(90.7796,0,0,90.7796,1157.23,329.907)">
                    <path d="M0.339,-0.322L0.472,-0.124C0.489,-0.097 0.507,-0.077 0.524,-0.063C0.541,-0.049 0.561,-0.042 0.583,-0.042L0.586,-0.042L0.586,-0L0.572,-0C0.543,-0 0.519,-0.001 0.5,-0.003C0.482,-0.004 0.465,-0.009 0.452,-0.015C0.438,-0.022 0.425,-0.032 0.414,-0.045C0.403,-0.058 0.39,-0.075 0.376,-0.097L0.276,-0.254L0.202,-0.199L0.202,-0.109C0.202,-0.094 0.204,-0.082 0.209,-0.073C0.213,-0.065 0.219,-0.058 0.227,-0.053C0.234,-0.049 0.243,-0.046 0.253,-0.044C0.263,-0.043 0.273,-0.042 0.284,-0.042L0.287,-0.042L0.287,-0L0.018,-0L0.018,-0.042L0.026,-0.042C0.037,-0.042 0.048,-0.043 0.058,-0.044C0.068,-0.046 0.076,-0.049 0.084,-0.054C0.091,-0.059 0.097,-0.067 0.101,-0.076C0.106,-0.086 0.108,-0.098 0.108,-0.114L0.108,-0.65C0.108,-0.665 0.106,-0.676 0.101,-0.685C0.097,-0.694 0.091,-0.701 0.083,-0.706C0.076,-0.711 0.067,-0.714 0.057,-0.716C0.047,-0.717 0.037,-0.718 0.026,-0.718L0.018,-0.718L0.018,-0.76L0.202,-0.76L0.202,-0.374C0.202,-0.365 0.202,-0.353 0.202,-0.339C0.201,-0.325 0.201,-0.311 0.2,-0.297C0.2,-0.282 0.199,-0.265 0.198,-0.248L0.323,-0.385C0.334,-0.397 0.343,-0.407 0.35,-0.417C0.357,-0.426 0.362,-0.434 0.367,-0.44C0.371,-0.447 0.374,-0.453 0.375,-0.459C0.377,-0.464 0.378,-0.469 0.378,-0.474C0.378,-0.483 0.374,-0.488 0.366,-0.49C0.358,-0.493 0.346,-0.494 0.329,-0.494L0.329,-0.536L0.55,-0.536L0.55,-0.494C0.527,-0.494 0.504,-0.486 0.482,-0.47C0.459,-0.453 0.435,-0.431 0.409,-0.401L0.339,-0.322Z" style="fill:white;fill-rule:nonzero;"/>
                </g>
                <g transform="matrix(90.7796,0,0,90.7796,1210.34,329.907)">
                    <path d="M0.036,-0.042C0.047,-0.042 0.058,-0.043 0.068,-0.044C0.078,-0.046 0.086,-0.049 0.094,-0.053C0.101,-0.058 0.107,-0.065 0.112,-0.073C0.116,-0.082 0.118,-0.094 0.118,-0.109L0.118,-0.426C0.118,-0.44 0.116,-0.452 0.112,-0.461C0.107,-0.47 0.101,-0.477 0.094,-0.482C0.086,-0.487 0.078,-0.49 0.068,-0.492C0.058,-0.493 0.047,-0.494 0.036,-0.494L0.033,-0.494L0.033,-0.536L0.212,-0.536L0.212,-0.114C0.212,-0.098 0.214,-0.086 0.219,-0.076C0.223,-0.067 0.229,-0.059 0.236,-0.054C0.243,-0.049 0.252,-0.046 0.262,-0.044C0.272,-0.043 0.283,-0.042 0.294,-0.042L0.307,-0.042L0.307,-0L0.023,-0L0.023,-0.042L0.036,-0.042ZM0.104,-0.698C0.104,-0.71 0.105,-0.72 0.108,-0.728C0.111,-0.735 0.115,-0.742 0.121,-0.747C0.126,-0.751 0.132,-0.755 0.139,-0.757C0.146,-0.759 0.153,-0.76 0.161,-0.76C0.169,-0.76 0.176,-0.759 0.183,-0.757C0.19,-0.755 0.196,-0.751 0.201,-0.747C0.206,-0.742 0.21,-0.735 0.213,-0.728C0.216,-0.72 0.218,-0.71 0.218,-0.698C0.218,-0.687 0.216,-0.677 0.213,-0.669C0.21,-0.661 0.206,-0.655 0.201,-0.65C0.196,-0.645 0.19,-0.642 0.183,-0.639C0.176,-0.637 0.169,-0.636 0.161,-0.636C0.153,-0.636 0.146,-0.637 0.139,-0.639C0.132,-0.642 0.126,-0.645 0.121,-0.65C0.115,-0.655 0.111,-0.661 0.108,-0.669C0.105,-0.677 0.104,-0.687 0.104,-0.698Z" style="fill:white;fill-rule:nonzero;"/>
                </g>
                <g transform="matrix(90.7796,0,0,90.7796,1239.37,329.907)">
                    <path d="M0.15,-0.761C0.181,-0.754 0.21,-0.744 0.24,-0.732C0.269,-0.719 0.297,-0.705 0.323,-0.687L0.452,-0.762L0.452,-0.705L0.364,-0.655C0.387,-0.635 0.409,-0.613 0.428,-0.588C0.448,-0.562 0.464,-0.535 0.478,-0.504C0.492,-0.473 0.503,-0.44 0.51,-0.405C0.518,-0.369 0.522,-0.331 0.522,-0.291C0.522,-0.189 0.502,-0.114 0.462,-0.064C0.422,-0.015 0.364,0.01 0.287,0.01C0.251,0.01 0.219,0.004 0.19,-0.006C0.161,-0.017 0.137,-0.033 0.117,-0.054C0.097,-0.076 0.082,-0.103 0.071,-0.135C0.06,-0.167 0.055,-0.205 0.055,-0.249C0.055,-0.336 0.075,-0.4 0.115,-0.442C0.154,-0.485 0.213,-0.506 0.29,-0.506C0.312,-0.506 0.333,-0.504 0.352,-0.499C0.37,-0.494 0.388,-0.488 0.405,-0.48C0.398,-0.502 0.386,-0.525 0.368,-0.55C0.351,-0.575 0.33,-0.598 0.304,-0.62L0.179,-0.549L0.179,-0.605L0.263,-0.653C0.247,-0.664 0.229,-0.674 0.21,-0.683C0.191,-0.693 0.171,-0.701 0.15,-0.707L0.15,-0.761ZM0.152,-0.249C0.152,-0.215 0.154,-0.185 0.159,-0.159C0.164,-0.133 0.172,-0.112 0.183,-0.094C0.194,-0.077 0.208,-0.064 0.225,-0.055C0.243,-0.046 0.264,-0.042 0.289,-0.042C0.314,-0.042 0.335,-0.046 0.353,-0.055C0.37,-0.064 0.384,-0.077 0.395,-0.094C0.405,-0.112 0.413,-0.133 0.418,-0.159C0.422,-0.185 0.425,-0.215 0.425,-0.249C0.425,-0.283 0.422,-0.313 0.417,-0.338C0.413,-0.364 0.405,-0.385 0.394,-0.402C0.383,-0.419 0.369,-0.432 0.352,-0.44C0.334,-0.449 0.313,-0.453 0.288,-0.453C0.263,-0.453 0.242,-0.449 0.225,-0.44C0.207,-0.432 0.193,-0.419 0.183,-0.402C0.172,-0.385 0.164,-0.364 0.159,-0.338C0.154,-0.313 0.152,-0.283 0.152,-0.249Z" style="fill:white;fill-rule:nonzero;"/>
                </g>
            </g>
            <g transform="matrix(1.99839,0,0,1.99839,-668.349,-454.516)">
                <g transform="matrix(33.3601,0,0,33.3601,597.236,492.313)">
                    <path d="M0.084,-0.209C0.084,-0.158 0.097,-0.117 0.125,-0.086C0.152,-0.055 0.189,-0.039 0.236,-0.039C0.282,-0.039 0.319,-0.051 0.347,-0.074C0.374,-0.097 0.388,-0.128 0.388,-0.168C0.388,-0.2 0.38,-0.226 0.365,-0.248C0.349,-0.27 0.315,-0.296 0.262,-0.325C0.209,-0.356 0.172,-0.388 0.151,-0.42C0.13,-0.453 0.12,-0.49 0.12,-0.531C0.12,-0.588 0.142,-0.635 0.186,-0.671C0.229,-0.706 0.288,-0.724 0.363,-0.724C0.421,-0.724 0.467,-0.714 0.501,-0.694C0.536,-0.674 0.553,-0.648 0.553,-0.616C0.553,-0.57 0.524,-0.547 0.465,-0.547C0.465,-0.586 0.456,-0.617 0.437,-0.64C0.418,-0.662 0.391,-0.674 0.355,-0.674C0.315,-0.674 0.283,-0.662 0.257,-0.64C0.232,-0.617 0.219,-0.586 0.219,-0.548C0.219,-0.52 0.226,-0.495 0.24,-0.474C0.253,-0.454 0.287,-0.427 0.343,-0.395C0.395,-0.364 0.433,-0.334 0.456,-0.304C0.48,-0.273 0.491,-0.239 0.491,-0.2C0.491,-0.134 0.468,-0.083 0.422,-0.046C0.376,-0.009 0.311,0.01 0.229,0.01C0.161,0.01 0.107,-0.004 0.067,-0.031C0.027,-0.057 0.007,-0.091 0.007,-0.133C0.007,-0.156 0.014,-0.174 0.029,-0.188C0.043,-0.202 0.062,-0.209 0.084,-0.209Z" style="fill:white;fill-rule:nonzero;"/>
                </g>
                <g transform="matrix(33.3601,0,0,33.3601,615.382,492.313)">
                    <path d="M0.301,-0.075L0.318,-0.038C0.273,-0.006 0.228,0.01 0.183,0.01C0.111,0.01 0.074,-0.029 0.074,-0.107C0.074,-0.132 0.077,-0.16 0.084,-0.191L0.145,-0.479L0.069,-0.479L0.078,-0.519C0.143,-0.519 0.194,-0.566 0.231,-0.659L0.277,-0.659L0.251,-0.536L0.372,-0.536L0.36,-0.479L0.239,-0.479L0.178,-0.194C0.17,-0.155 0.166,-0.127 0.166,-0.108C0.166,-0.071 0.184,-0.053 0.219,-0.053C0.246,-0.053 0.273,-0.061 0.301,-0.075Z" style="fill:white;fill-rule:nonzero;"/>
                </g>
                <g transform="matrix(33.3601,0,0,33.3601,627.664,492.313)">
                    <path d="M0.365,-0.151L0.359,-0.151C0.311,-0.044 0.249,0.01 0.172,0.01C0.131,0.01 0.1,-0.006 0.077,-0.038C0.054,-0.07 0.043,-0.115 0.043,-0.173C0.043,-0.265 0.072,-0.35 0.129,-0.428C0.186,-0.507 0.257,-0.546 0.341,-0.546C0.386,-0.546 0.425,-0.534 0.458,-0.51L0.502,-0.535L0.534,-0.535L0.466,-0.215C0.456,-0.169 0.451,-0.132 0.451,-0.104C0.451,-0.07 0.462,-0.053 0.484,-0.053C0.503,-0.053 0.527,-0.062 0.556,-0.079L0.574,-0.05C0.526,-0.01 0.479,0.01 0.433,0.01C0.381,0.01 0.355,-0.018 0.355,-0.073C0.355,-0.094 0.358,-0.12 0.365,-0.151ZM0.422,-0.465C0.407,-0.489 0.381,-0.501 0.346,-0.501C0.289,-0.501 0.241,-0.465 0.203,-0.392C0.164,-0.32 0.145,-0.245 0.145,-0.169C0.145,-0.092 0.166,-0.053 0.208,-0.053C0.241,-0.053 0.276,-0.078 0.313,-0.127C0.349,-0.176 0.373,-0.23 0.385,-0.288L0.422,-0.465Z" style="fill:white;fill-rule:nonzero;"/>
                </g>
                <g transform="matrix(33.3601,0,0,33.3601,646.983,492.313)">
                    <path d="M0.301,-0.075L0.318,-0.038C0.273,-0.006 0.228,0.01 0.183,0.01C0.111,0.01 0.074,-0.029 0.074,-0.107C0.074,-0.132 0.077,-0.16 0.084,-0.191L0.145,-0.479L0.069,-0.479L0.078,-0.519C0.143,-0.519 0.194,-0.566 0.231,-0.659L0.277,-0.659L0.251,-0.536L0.372,-0.536L0.36,-0.479L0.239,-0.479L0.178,-0.194C0.17,-0.155 0.166,-0.127 0.166,-0.108C0.166,-0.071 0.184,-0.053 0.219,-0.053C0.246,-0.053 0.273,-0.061 0.301,-0.075Z" style="fill:white;fill-rule:nonzero;"/>
                </g>
                <g transform="matrix(33.3601,0,0,33.3601,659.265,492.313)">
                    <path d="M0.401,-0.125C0.408,-0.121 0.411,-0.112 0.411,-0.1C0.411,-0.073 0.395,-0.048 0.364,-0.025C0.333,-0.002 0.291,0.01 0.238,0.01C0.18,0.01 0.132,-0.009 0.097,-0.045C0.061,-0.082 0.043,-0.133 0.043,-0.197C0.043,-0.284 0.071,-0.364 0.127,-0.437C0.184,-0.51 0.255,-0.546 0.341,-0.546C0.383,-0.546 0.416,-0.536 0.439,-0.516C0.462,-0.495 0.474,-0.467 0.474,-0.431C0.474,-0.377 0.446,-0.33 0.39,-0.29C0.334,-0.25 0.265,-0.23 0.184,-0.23L0.167,-0.23C0.161,-0.23 0.155,-0.23 0.149,-0.231C0.148,-0.222 0.147,-0.208 0.147,-0.189C0.147,-0.098 0.184,-0.053 0.257,-0.053C0.314,-0.053 0.362,-0.077 0.401,-0.125ZM0.158,-0.277L0.168,-0.277C0.227,-0.277 0.275,-0.291 0.314,-0.32C0.352,-0.348 0.371,-0.386 0.371,-0.431C0.371,-0.476 0.352,-0.498 0.313,-0.498C0.281,-0.498 0.251,-0.478 0.223,-0.437C0.195,-0.397 0.173,-0.343 0.158,-0.277Z" style="fill:white;fill-rule:nonzero;"/>
                </g>
                <g transform="matrix(33.3601,0,0,33.3601,684.383,492.313)">
                    <path d="M0.341,-0.546C0.4,-0.546 0.446,-0.528 0.48,-0.493C0.514,-0.457 0.531,-0.406 0.531,-0.339C0.531,-0.25 0.504,-0.17 0.449,-0.098C0.395,-0.026 0.323,0.01 0.235,0.01C0.175,0.01 0.128,-0.008 0.094,-0.045C0.06,-0.081 0.043,-0.132 0.043,-0.197C0.043,-0.287 0.07,-0.367 0.125,-0.439C0.18,-0.51 0.252,-0.546 0.341,-0.546ZM0.246,-0.039C0.301,-0.039 0.345,-0.072 0.378,-0.137C0.41,-0.202 0.427,-0.275 0.427,-0.354C0.427,-0.447 0.394,-0.493 0.329,-0.493C0.275,-0.493 0.231,-0.46 0.197,-0.395C0.164,-0.33 0.147,-0.257 0.147,-0.177C0.147,-0.085 0.18,-0.039 0.246,-0.039Z" style="fill:white;fill-rule:nonzero;"/>
                </g>
                <g transform="matrix(33.3601,0,0,33.3601,703.539,492.313)">
                    <path d="M0.351,-0.479L0.239,-0.479L0.135,0.008C0.118,0.088 0.092,0.147 0.059,0.184C0.026,0.222 -0.021,0.24 -0.082,0.24C-0.101,0.24 -0.12,0.237 -0.14,0.232L-0.131,0.186C-0.114,0.191 -0.099,0.193 -0.085,0.193C-0.053,0.193 -0.027,0.179 -0.009,0.151C0.01,0.124 0.026,0.076 0.041,0.009L0.146,-0.479L0.055,-0.479L0.061,-0.515L0.157,-0.536L0.168,-0.591C0.191,-0.71 0.255,-0.77 0.358,-0.77C0.401,-0.77 0.433,-0.763 0.454,-0.75C0.476,-0.736 0.487,-0.718 0.487,-0.696C0.487,-0.653 0.459,-0.631 0.404,-0.631C0.404,-0.693 0.387,-0.724 0.353,-0.724C0.329,-0.724 0.31,-0.714 0.296,-0.694C0.283,-0.674 0.272,-0.642 0.264,-0.6L0.251,-0.536L0.362,-0.536L0.351,-0.479Z" style="fill:white;fill-rule:nonzero;"/>
                </g>
                <g transform="matrix(33.3601,0,0,33.3601,722.809,492.313)">
                    <path d="M0.199,-0.239L0.139,-0.134C0.126,-0.112 0.12,-0.093 0.12,-0.078C0.12,-0.054 0.139,-0.042 0.176,-0.042L0.199,-0.042L0.191,-0L-0.056,-0L-0.048,-0.042L-0.029,-0.042C-0.011,-0.042 0.004,-0.047 0.016,-0.056C0.028,-0.065 0.044,-0.087 0.064,-0.12L0.412,-0.714L0.49,-0.714L0.585,-0.095C0.588,-0.074 0.594,-0.06 0.602,-0.053C0.61,-0.046 0.624,-0.042 0.644,-0.042L0.657,-0.042L0.649,-0L0.377,-0L0.385,-0.042L0.408,-0.042C0.456,-0.042 0.48,-0.059 0.48,-0.093C0.48,-0.106 0.479,-0.118 0.478,-0.127L0.462,-0.239L0.199,-0.239ZM0.43,-0.464C0.42,-0.535 0.415,-0.588 0.414,-0.622C0.399,-0.586 0.373,-0.536 0.336,-0.473L0.229,-0.289L0.455,-0.289L0.43,-0.464Z" style="fill:white;fill-rule:nonzero;"/>
                </g>
                <g transform="matrix(33.3601,0,0,33.3601,746.331,492.313)">
                    <path d="M0.39,-0.401C0.39,-0.454 0.377,-0.48 0.35,-0.48C0.319,-0.48 0.286,-0.45 0.252,-0.389C0.217,-0.328 0.191,-0.259 0.175,-0.182L0.137,-0L0.044,-0L0.128,-0.402C0.132,-0.42 0.134,-0.435 0.134,-0.447C0.134,-0.478 0.107,-0.494 0.054,-0.494L0.046,-0.494L0.055,-0.536L0.232,-0.536L0.211,-0.392L0.221,-0.392C0.248,-0.452 0.274,-0.492 0.3,-0.514C0.326,-0.535 0.357,-0.546 0.391,-0.546C0.446,-0.546 0.473,-0.523 0.473,-0.477C0.473,-0.426 0.445,-0.401 0.39,-0.401Z" style="fill:white;fill-rule:nonzero;"/>
                </g>
                <g transform="matrix(33.3601,0,0,33.3601,761.936,492.313)">
                    <path d="M0.401,-0.125C0.408,-0.121 0.411,-0.112 0.411,-0.1C0.411,-0.073 0.395,-0.048 0.364,-0.025C0.333,-0.002 0.291,0.01 0.238,0.01C0.18,0.01 0.132,-0.009 0.097,-0.045C0.061,-0.082 0.043,-0.133 0.043,-0.197C0.043,-0.284 0.071,-0.364 0.127,-0.437C0.184,-0.51 0.255,-0.546 0.341,-0.546C0.387,-0.546 0.423,-0.537 0.448,-0.519C0.474,-0.5 0.487,-0.478 0.487,-0.45C0.487,-0.43 0.479,-0.413 0.463,-0.4C0.447,-0.387 0.425,-0.38 0.398,-0.38C0.398,-0.415 0.391,-0.444 0.377,-0.466C0.364,-0.487 0.345,-0.498 0.321,-0.498C0.274,-0.498 0.234,-0.463 0.199,-0.394C0.164,-0.324 0.147,-0.256 0.147,-0.189C0.147,-0.098 0.184,-0.053 0.257,-0.053C0.315,-0.053 0.363,-0.077 0.401,-0.125Z" style="fill:white;fill-rule:nonzero;"/>
                </g>
                <g transform="matrix(33.3601,0,0,33.3601,778.176,492.313)">
                    <path d="M0.301,-0.075L0.318,-0.038C0.273,-0.006 0.228,0.01 0.183,0.01C0.111,0.01 0.074,-0.029 0.074,-0.107C0.074,-0.132 0.077,-0.16 0.084,-0.191L0.145,-0.479L0.069,-0.479L0.078,-0.519C0.143,-0.519 0.194,-0.566 0.231,-0.659L0.277,-0.659L0.251,-0.536L0.372,-0.536L0.36,-0.479L0.239,-0.479L0.178,-0.194C0.17,-0.155 0.166,-0.127 0.166,-0.108C0.166,-0.071 0.184,-0.053 0.219,-0.053C0.246,-0.053 0.273,-0.061 0.301,-0.075Z" style="fill:white;fill-rule:nonzero;"/>
                </g>
                <g transform="matrix(33.3601,0,0,33.3601,790.458,492.313)">
                    <path d="M0.224,-0.636C0.187,-0.636 0.168,-0.654 0.168,-0.691C0.168,-0.712 0.173,-0.729 0.184,-0.742C0.195,-0.755 0.21,-0.761 0.228,-0.761C0.265,-0.761 0.284,-0.743 0.284,-0.706C0.284,-0.683 0.279,-0.666 0.267,-0.654C0.256,-0.642 0.242,-0.636 0.224,-0.636ZM0.062,-0.494L0.071,-0.536L0.25,-0.536L0.182,-0.215C0.172,-0.167 0.167,-0.13 0.167,-0.104C0.167,-0.07 0.178,-0.053 0.2,-0.053C0.219,-0.053 0.243,-0.062 0.272,-0.079L0.29,-0.05C0.244,-0.01 0.199,0.01 0.155,0.01C0.13,0.01 0.11,0.001 0.095,-0.017C0.079,-0.035 0.072,-0.058 0.072,-0.085C0.072,-0.115 0.079,-0.167 0.094,-0.242L0.133,-0.426C0.135,-0.437 0.136,-0.445 0.136,-0.452C0.136,-0.48 0.116,-0.494 0.075,-0.494L0.062,-0.494Z" style="fill:white;fill-rule:nonzero;"/>
                </g>
                <g transform="matrix(33.3601,0,0,33.3601,800.606,492.313)">
                    <path d="M0.362,-0.388C0.362,-0.422 0.354,-0.449 0.338,-0.469C0.322,-0.489 0.3,-0.499 0.272,-0.499C0.242,-0.499 0.218,-0.491 0.201,-0.475C0.184,-0.459 0.175,-0.438 0.175,-0.413C0.175,-0.391 0.183,-0.372 0.2,-0.356C0.216,-0.341 0.242,-0.325 0.277,-0.31C0.357,-0.274 0.397,-0.222 0.397,-0.155C0.397,-0.106 0.378,-0.066 0.34,-0.036C0.303,-0.005 0.252,0.01 0.19,0.01C0.139,0.01 0.099,-0 0.07,-0.021C0.04,-0.041 0.025,-0.069 0.025,-0.103C0.025,-0.125 0.031,-0.141 0.043,-0.152C0.055,-0.163 0.07,-0.169 0.088,-0.169C0.088,-0.128 0.098,-0.095 0.118,-0.073C0.138,-0.05 0.166,-0.038 0.202,-0.038C0.274,-0.038 0.31,-0.069 0.31,-0.131C0.31,-0.155 0.302,-0.175 0.287,-0.191C0.272,-0.208 0.246,-0.224 0.209,-0.241C0.161,-0.264 0.129,-0.288 0.113,-0.312C0.096,-0.336 0.088,-0.364 0.088,-0.396C0.088,-0.44 0.106,-0.475 0.141,-0.503C0.177,-0.531 0.223,-0.545 0.281,-0.545C0.33,-0.545 0.368,-0.536 0.396,-0.518C0.423,-0.499 0.437,-0.477 0.437,-0.45C0.437,-0.409 0.412,-0.388 0.362,-0.388Z" style="fill:white;fill-rule:nonzero;"/>
                </g>
                <g transform="matrix(33.3601,0,0,33.3601,816.081,492.313)">
                    <path d="M0.401,-0.125C0.408,-0.121 0.411,-0.112 0.411,-0.1C0.411,-0.073 0.395,-0.048 0.364,-0.025C0.333,-0.002 0.291,0.01 0.238,0.01C0.18,0.01 0.132,-0.009 0.097,-0.045C0.061,-0.082 0.043,-0.133 0.043,-0.197C0.043,-0.284 0.071,-0.364 0.127,-0.437C0.184,-0.51 0.255,-0.546 0.341,-0.546C0.387,-0.546 0.423,-0.537 0.448,-0.519C0.474,-0.5 0.487,-0.478 0.487,-0.45C0.487,-0.43 0.479,-0.413 0.463,-0.4C0.447,-0.387 0.425,-0.38 0.398,-0.38C0.398,-0.415 0.391,-0.444 0.377,-0.466C0.364,-0.487 0.345,-0.498 0.321,-0.498C0.274,-0.498 0.234,-0.463 0.199,-0.394C0.164,-0.324 0.147,-0.256 0.147,-0.189C0.147,-0.098 0.184,-0.053 0.257,-0.053C0.315,-0.053 0.363,-0.077 0.401,-0.125Z" style="fill:white;fill-rule:nonzero;"/>
                </g>
                <g transform="matrix(33.3601,0,0,33.3601,832.321,492.313)">
                    <path d="M0.23,-0.41C0.285,-0.5 0.347,-0.545 0.415,-0.545C0.486,-0.545 0.522,-0.508 0.522,-0.434C0.522,-0.413 0.516,-0.376 0.504,-0.324L0.478,-0.206C0.469,-0.166 0.465,-0.131 0.465,-0.101C0.465,-0.069 0.477,-0.053 0.5,-0.053C0.519,-0.053 0.541,-0.061 0.564,-0.076L0.582,-0.047C0.538,-0.009 0.498,0.01 0.46,0.01C0.432,0.01 0.41,0.001 0.394,-0.017C0.377,-0.035 0.369,-0.059 0.369,-0.09C0.369,-0.12 0.375,-0.166 0.388,-0.225L0.411,-0.329C0.421,-0.369 0.426,-0.4 0.426,-0.422C0.426,-0.461 0.41,-0.481 0.38,-0.481C0.343,-0.481 0.305,-0.456 0.265,-0.405C0.226,-0.354 0.201,-0.305 0.191,-0.256L0.137,-0L0.044,-0L0.174,-0.618C0.18,-0.647 0.183,-0.665 0.183,-0.671C0.183,-0.702 0.16,-0.718 0.113,-0.718L0.105,-0.718L0.114,-0.76L0.298,-0.76L0.259,-0.576C0.247,-0.521 0.234,-0.466 0.219,-0.41L0.23,-0.41Z" style="fill:white;fill-rule:nonzero;"/>
                </g>
                <g transform="matrix(33.3601,0,0,33.3601,852.308,492.313)">
                    <path d="M0.224,-0.636C0.187,-0.636 0.168,-0.654 0.168,-0.691C0.168,-0.712 0.173,-0.729 0.184,-0.742C0.195,-0.755 0.21,-0.761 0.228,-0.761C0.265,-0.761 0.284,-0.743 0.284,-0.706C0.284,-0.683 0.279,-0.666 0.267,-0.654C0.256,-0.642 0.242,-0.636 0.224,-0.636ZM0.062,-0.494L0.071,-0.536L0.25,-0.536L0.182,-0.215C0.172,-0.167 0.167,-0.13 0.167,-0.104C0.167,-0.07 0.178,-0.053 0.2,-0.053C0.219,-0.053 0.243,-0.062 0.272,-0.079L0.29,-0.05C0.244,-0.01 0.199,0.01 0.155,0.01C0.13,0.01 0.11,0.001 0.095,-0.017C0.079,-0.035 0.072,-0.058 0.072,-0.085C0.072,-0.115 0.079,-0.167 0.094,-0.242L0.133,-0.426C0.135,-0.437 0.136,-0.445 0.136,-0.452C0.136,-0.48 0.116,-0.494 0.075,-0.494L0.062,-0.494Z" style="fill:white;fill-rule:nonzero;"/>
                </g>
                <g transform="matrix(33.3601,0,0,33.3601,862.456,492.313)">
                    <path d="M0.365,-0.151L0.359,-0.151C0.311,-0.044 0.249,0.01 0.172,0.01C0.131,0.01 0.1,-0.006 0.077,-0.038C0.054,-0.07 0.043,-0.115 0.043,-0.173C0.043,-0.265 0.072,-0.35 0.129,-0.428C0.186,-0.507 0.257,-0.546 0.341,-0.546C0.386,-0.546 0.425,-0.534 0.458,-0.51L0.502,-0.535L0.534,-0.535L0.466,-0.215C0.456,-0.169 0.451,-0.132 0.451,-0.104C0.451,-0.07 0.462,-0.053 0.484,-0.053C0.503,-0.053 0.527,-0.062 0.556,-0.079L0.574,-0.05C0.526,-0.01 0.479,0.01 0.433,0.01C0.381,0.01 0.355,-0.018 0.355,-0.073C0.355,-0.094 0.358,-0.12 0.365,-0.151ZM0.422,-0.465C0.407,-0.489 0.381,-0.501 0.346,-0.501C0.289,-0.501 0.241,-0.465 0.203,-0.392C0.164,-0.32 0.145,-0.245 0.145,-0.169C0.145,-0.092 0.166,-0.053 0.208,-0.053C0.241,-0.053 0.276,-0.078 0.313,-0.127C0.349,-0.176 0.373,-0.23 0.385,-0.288L0.422,-0.465Z" style="fill:white;fill-rule:nonzero;"/>
                </g>
            </g>
            <g transform="matrix(1.11143,0,0,1.11143,-17.9401,218.376)">
                <g id="crest">
                    <g>
                        <g>
                            <g>
                                <g transform="matrix(1,0,0,1,0,-0.24)">
                                    <path d="M279.859,293.813L247.592,270.369L215.324,293.813L227.649,255.879L202.616,237.692C205.624,247.974 205.335,258.137 199.022,262.81C177.236,278.929 176.985,316.511 168.25,314.661C163.241,314.44 167.867,292.651 163.949,286.309C162.381,283.778 157.414,284.157 152.841,286.335C149.574,285.897 142.027,290.136 145.73,294.493C144.207,292.749 149.381,289.548 152.404,290.692C152.404,290.692 151.613,293.388 153.141,296.003C154.667,298.614 159.157,298.095 160.685,298.968C162.203,299.841 160.9,310.948 158.939,313.999C155.239,312.69 145.874,298.968 143.691,296.788C141.3,294.397 134.762,297.442 135.85,305.067C133.671,307.028 126.048,312.038 132.583,319.227C129.97,316.395 134.762,309.643 137.155,309.643C138.903,312.472 142.599,315.304 143.691,314.436C144.781,313.563 154.146,307.03 153.492,319.227C149.302,320.261 133.29,318.872 132.473,321.811C131.656,324.753 132.473,330.063 132.473,330.063C128.716,331.534 128.716,343.458 135.251,344.766C133.783,341.661 133.783,336.6 135.086,333.819C139.008,336.761 142.931,335.294 143.909,333.495C142.603,330.391 148.436,318.716 157.47,333.169C159.375,336.218 159.269,340.899 153.168,345.149C149.947,347.391 154.583,352.118 154.583,352.118C155.672,354.731 147.835,358.647 145.654,357.563C153.492,361.921 157.851,354.95 157.851,354.95C162.21,354.95 168.088,352.776 168.526,348.634C166.565,343.403 164.736,333.659 169.395,325.325C177.672,310.515 205.121,303.759 212.96,288.731C215.14,305.067 168.74,364.751 163.516,386.317C174.405,378.479 208.169,347.108 208.169,347.108C210.784,363.009 194.944,391.827 194.008,405.919C205.691,399.651 223.744,368.239 235.835,363.663C235.835,363.663 242.644,430.536 246.999,435.765C256.582,417.468 261.971,365.407 261.971,365.407C261.971,365.407 288.547,393.724 301.731,402.317C300.789,388.227 283.212,366.815 285.828,350.913C285.828,350.913 319.593,382.28 330.482,390.122C325.254,368.556 278.857,308.872 281.036,292.534C288.88,307.563 316.325,314.317 324.603,329.13C329.258,337.466 327.433,347.21 325.473,352.438C325.907,356.581 331.788,358.753 336.147,358.753C336.147,358.753 340.502,365.724 348.341,361.368C346.166,362.456 338.321,358.536 339.41,355.923C339.41,355.923 344.05,351.192 340.829,348.954C334.728,344.702 334.619,340.022 336.525,336.972C345.563,322.52 351.392,334.192 350.085,337.298C351.063,339.095 354.99,340.565 358.908,337.624C360.215,340.403 360.215,345.466 358.743,348.569C365.277,347.263 365.277,335.335 361.521,333.866C361.521,333.866 362.337,328.558 361.521,325.616C360.708,322.675 344.696,324.063 340.502,323.034C339.851,310.835 349.215,317.368 350.309,318.239C351.395,319.104 355.096,316.278 356.84,313.446C359.235,313.446 364.027,320.2 361.414,323.034C367.949,315.845 360.322,310.831 358.147,308.872C359.235,301.249 352.694,298.202 350.309,300.595C348.125,302.776 338.759,316.497 335.06,317.804C333.094,314.753 331.79,303.647 333.315,302.776C334.837,301.901 339.334,302.419 340.855,299.804C342.382,297.19 341.591,294.493 341.591,294.493C344.613,293.352 349.791,296.552 348.271,298.298C351.97,293.936 344.424,289.7 341.156,290.14C336.584,287.96 331.616,287.583 330.045,290.12C326.126,296.454 330.754,318.243 325.744,318.464C317.017,320.315 316.758,282.731 294.976,266.613C287.865,261.349 288.395,249.133 292.669,237.619L267.533,255.879L279.859,293.813Z" style="fill:white;fill-rule:nonzero;"/>
                                </g>
                                <g transform="matrix(1,0,0,1,0,-0.24)">
                                    <path d="M279.859,293.813L247.592,270.369L215.324,293.813L227.649,255.879L202.616,237.692C205.624,247.974 205.335,258.137 199.022,262.81C177.236,278.929 176.985,316.511 168.25,314.661C163.241,314.44 167.867,292.651 163.949,286.309C162.381,283.778 157.414,284.157 152.841,286.335C149.574,285.897 142.027,290.136 145.73,294.493C144.207,292.749 149.381,289.548 152.404,290.692C152.404,290.692 151.613,293.388 153.141,296.003C154.667,298.614 159.157,298.095 160.685,298.968C162.203,299.841 160.9,310.948 158.939,313.999C155.239,312.69 145.874,298.968 143.691,296.788C141.3,294.397 134.762,297.442 135.85,305.067C133.671,307.028 126.048,312.038 132.583,319.227C129.97,316.395 134.762,309.643 137.155,309.643C138.903,312.472 142.599,315.304 143.691,314.436C144.781,313.563 154.146,307.03 153.492,319.227C149.302,320.261 133.29,318.872 132.473,321.811C131.656,324.753 132.473,330.063 132.473,330.063C128.716,331.534 128.716,343.458 135.251,344.766C133.783,341.661 133.783,336.6 135.086,333.819C139.008,336.761 142.931,335.294 143.909,333.495C142.603,330.391 148.436,318.716 157.47,333.169C159.375,336.218 159.269,340.899 153.168,345.149C149.947,347.391 154.583,352.118 154.583,352.118C155.672,354.731 147.835,358.647 145.654,357.563C153.492,361.921 157.851,354.95 157.851,354.95C162.21,354.95 168.088,352.776 168.526,348.634C166.565,343.403 164.736,333.659 169.395,325.325C177.672,310.515 205.121,303.759 212.96,288.731C215.14,305.067 168.74,364.751 163.516,386.317C174.405,378.479 208.169,347.108 208.169,347.108C210.784,363.009 194.944,391.827 194.008,405.919C205.691,399.651 223.744,368.239 235.835,363.663C235.835,363.663 242.644,430.536 246.999,435.765C256.582,417.468 261.971,365.407 261.971,365.407C261.971,365.407 288.547,393.724 301.731,402.317C300.789,388.227 283.212,366.815 285.828,350.913C285.828,350.913 319.593,382.28 330.482,390.122C325.254,368.556 278.857,308.872 281.036,292.534C288.88,307.563 316.325,314.317 324.603,329.13C329.258,337.466 327.433,347.21 325.473,352.438C325.907,356.581 331.788,358.753 336.147,358.753C336.147,358.753 340.502,365.724 348.341,361.368C346.166,362.456 338.321,358.536 339.41,355.923C339.41,355.923 344.05,351.192 340.829,348.954C334.728,344.702 334.619,340.022 336.525,336.972C345.563,322.52 351.392,334.192 350.085,337.298C351.063,339.095 354.99,340.565 358.908,337.624C360.215,340.403 360.215,345.466 358.743,348.569C365.277,347.263 365.277,335.335 361.521,333.866C361.521,333.866 362.337,328.558 361.521,325.616C360.708,322.675 344.696,324.063 340.502,323.034C339.851,310.835 349.215,317.368 350.309,318.239C351.395,319.104 355.096,316.278 356.84,313.446C359.235,313.446 364.027,320.2 361.414,323.034C367.949,315.845 360.322,310.831 358.147,308.872C359.235,301.249 352.694,298.202 350.309,300.595C348.125,302.776 338.759,316.497 335.06,317.804C333.094,314.753 331.79,303.647 333.315,302.776C334.837,301.901 339.334,302.419 340.855,299.804C342.382,297.19 341.591,294.493 341.591,294.493C344.613,293.352 349.791,296.552 348.271,298.298C351.97,293.936 344.424,289.7 341.156,290.14C336.584,287.96 331.616,287.583 330.045,290.12C326.126,296.454 330.754,318.243 325.744,318.464C317.017,320.315 316.758,282.731 294.976,266.613C287.865,261.349 288.395,249.133 292.669,237.619L267.533,255.879L279.859,293.813Z" style="fill:white;fill-rule:nonzero;"/>
                                </g>
                                <path d="M455.294,304.294C426.218,281.097 404.325,244.826 396.48,224.569C396.48,224.569 425.563,247.44 450.397,249.404C436.673,240.255 386.024,187.975 387.338,170.329C387.338,170.329 418.485,198.431 441.572,197.45C412.82,182.203 382.341,125.375 356.95,102.371C341.124,88.033 314.796,98.671 324.603,122.628C350.075,184.903 290.727,187.004 282.882,181.126C278.094,177.639 283.755,177.204 293.342,180.689C293.342,180.689 279.833,161.956 275.914,155.42C275.914,155.42 281.579,155.42 283.755,158.035C280.703,148.886 264.585,120.131 261.104,115.994L268.07,117.192C251.083,95.268 206.317,87.459 205.989,100.31C189.872,97.914 178.327,99.66 179.633,110.766C180.784,120.542 188.84,122.725 189.868,122.961C186.61,115.772 205.983,103.958 217.742,127.043C217.742,127.043 204.028,127.974 194.881,127.043C194.554,130.359 209.148,131.025 215.792,133.536C218.08,138.429 215.14,161.628 194.448,174.153C209.476,170.231 211.217,176.983 211.217,176.983C203.374,182.869 143.918,181.099 169.395,118.826C179.197,94.863 152.871,84.232 137.047,98.568C111.656,121.571 81.176,178.401 52.422,193.649C75.512,194.629 106.663,166.531 106.663,166.531C107.97,184.173 57.324,236.451 43.6,245.601C68.431,243.641 97.513,220.767 97.513,220.767C89.668,241.027 67.78,277.292 38.699,300.493C70.064,293.308 110.909,250.176 110.909,250.176C102.086,278.274 82.483,300.493 82.483,300.493C97.513,305.067 141.297,244.946 141.297,244.946C142.603,258.67 128.66,286.77 119.95,297.878C151.317,283.255 175.275,235.145 175.275,235.145C175.275,235.145 177.672,253.443 161.769,275.662C173.685,276.851 191.112,255.513 197.075,233.667L195.382,232.436L197.399,232.436C197.832,230.722 198.195,229.008 198.476,227.304C199.324,228.974 200.102,230.693 200.798,232.436L235.267,232.436L247.592,194.503L259.917,232.436L294.865,232.436C295.08,231.991 295.298,231.546 295.521,231.106C295.594,231.549 295.674,231.992 295.758,232.436L299.802,232.436L296.294,234.984C301.557,257.669 319.861,280.7 332.224,279.466C316.323,257.243 318.72,238.946 318.72,238.946C318.72,238.946 342.682,287.061 374.047,301.683C365.335,290.573 351.392,262.474 352.701,248.75C352.701,248.75 396.48,308.872 411.516,304.294C411.516,304.294 391.908,282.079 383.089,253.977C383.089,253.977 423.93,297.11 455.294,304.294Z" style="fill:white;fill-rule:nonzero;"/>
                                <path d="M455.294,304.294C426.218,281.097 404.325,244.826 396.48,224.569C396.48,224.569 425.563,247.44 450.397,249.404C436.673,240.255 386.024,187.975 387.338,170.329C387.338,170.329 418.485,198.431 441.572,197.45C412.82,182.203 382.341,125.375 356.95,102.371C341.124,88.033 314.796,98.671 324.603,122.628C350.075,184.903 290.727,187.004 282.882,181.126C278.094,177.639 283.755,177.204 293.342,180.689C293.342,180.689 279.833,161.956 275.914,155.42C275.914,155.42 281.579,155.42 283.755,158.035C280.703,148.886 264.585,120.131 261.104,115.994L268.07,117.192C251.083,95.268 206.317,87.459 205.989,100.31C189.872,97.914 178.327,99.66 179.633,110.766C180.784,120.542 188.84,122.725 189.868,122.961C186.61,115.772 205.983,103.958 217.742,127.043C217.742,127.043 204.028,127.974 194.881,127.043C194.554,130.359 209.148,131.025 215.792,133.536C218.08,138.429 215.14,161.628 194.448,174.153C209.476,170.231 211.217,176.983 211.217,176.983C203.374,182.869 143.918,181.099 169.395,118.826C179.197,94.863 152.871,84.232 137.047,98.568C111.656,121.571 81.176,178.401 52.422,193.649C75.512,194.629 106.663,166.531 106.663,166.531C107.97,184.173 57.324,236.451 43.6,245.601C68.431,243.641 97.513,220.767 97.513,220.767C89.668,241.027 67.78,277.292 38.699,300.493C70.064,293.308 110.909,250.176 110.909,250.176C102.086,278.274 82.483,300.493 82.483,300.493C97.513,305.067 141.297,244.946 141.297,244.946C142.603,258.67 128.66,286.77 119.95,297.878C151.317,283.255 175.275,235.145 175.275,235.145C175.275,235.145 177.672,253.443 161.769,275.662C173.685,276.851 191.112,255.513 197.075,233.667L195.382,232.436L197.399,232.436C197.832,230.722 198.195,229.008 198.476,227.304C199.324,228.974 200.102,230.693 200.798,232.436L235.267,232.436L247.592,194.503L259.917,232.436L294.865,232.436C295.08,231.991 295.298,231.546 295.521,231.106C295.594,231.549 295.674,231.992 295.758,232.436L299.802,232.436L296.294,234.984C301.557,257.669 319.861,280.7 332.224,279.466C316.323,257.243 318.72,238.946 318.72,238.946C318.72,238.946 342.682,287.061 374.047,301.683C365.335,290.573 351.392,262.474 352.701,248.75C352.701,248.75 396.48,308.872 411.516,304.294C411.516,304.294 391.908,282.079 383.089,253.977C383.089,253.977 423.93,297.11 455.294,304.294Z" style="fill:white;fill-rule:nonzero;"/>
                                <path d="M247.592,194.503L235.267,232.436L200.798,232.436C201.492,234.174 202.102,235.935 202.616,237.692L227.649,255.879L215.324,293.813L247.592,270.369L279.859,293.813L267.533,255.879L292.669,237.619C293.319,235.867 294.056,234.13 294.865,232.436L259.917,232.436L247.592,194.503Z" style="fill:white;fill-rule:nonzero;stroke:white;stroke-width:1px;"/>
                                <path d="M247.592,194.503L235.267,232.436L200.798,232.436C201.492,234.174 202.102,235.935 202.616,237.692L227.649,255.879L215.324,293.813L247.592,270.369L279.859,293.813L267.533,255.879L292.669,237.619C293.319,235.867 294.056,234.13 294.865,232.436L259.917,232.436L247.592,194.503Z" style="fill:white;fill-rule:nonzero;stroke:white;stroke-width:1px;"/>
                                <path d="M295.758,232.436C295.917,233.284 296.097,234.134 296.294,234.984L299.802,232.436L295.758,232.436Z" style="fill:white;fill-rule:nonzero;"/>
                                <path d="M295.758,232.436C295.917,233.284 296.097,234.134 296.294,234.984L299.802,232.436L295.758,232.436Z" style="fill:white;fill-rule:nonzero;"/>
                                <path d="M197.075,233.667C197.187,233.257 197.295,232.846 197.399,232.436L195.382,232.436L197.075,233.667Z" style="fill:white;fill-rule:nonzero;"/>
                                <path d="M197.075,233.667C197.187,233.257 197.295,232.846 197.399,232.436L195.382,232.436L197.075,233.667Z" style="fill:white;fill-rule:nonzero;"/>
                            </g>
                        </g>
                    </g>
                </g>
            </g>
        </g>
    </g>
</svg>
